<?xml version="1.0" encoding="UTF-8"?>
<svg id="Layer_1" xmlns="http://www.w3.org/2000/svg" version="1.1" viewBox="0 0 128 128">
  <!-- Generator: Adobe Illustrator 29.7.1, SVG Export Plug-In . SVG Version: 2.1.1 Build 8)  -->
  <defs>
    <style>
      .st0 {
        fill: #f4dc9f;
      }

      .st1 {
        fill: #3e31a4;
      }

      .st2 {
        fill: #ffe8a6;
      }

      .st3 {
        fill: #3e43b2;
      }
    </style>
  </defs>
  <path class="st2" d="M64,.7c-2.3,0-4.2,28.4-4.2,63.3s1.9,63.3,4.2,63.3c35,0,63.3-28.4,63.3-63.3S99,.7,64,.7Z"/>
  <path class="st1" d="M59.8,64c0-35,1.9-63.3,4.2-63.3C29,.7.7,29,.7,64s28.4,63.3,63.3,63.3c-2.3,0-4.2-28.4-4.2-63.3Z"/>
  <circle class="st0" cx="102" cy="70.9" r="14.8"/>
  <path class="st0" d="M60.1,88c.3,10.8.8,20.1,1.4,26.9,3.1-3.4,5-7.8,5-12.8s-2.5-10.7-6.4-14.1Z"/>
  <circle class="st0" cx="74.6" cy="35" r="8.4"/>
  <circle class="st0" cx="78.8" cy="16" r="4.2"/>
  <circle class="st0" cx="106.2" cy="102.1" r="4.2"/>
  <circle class="st0" cx="93.6" cy="107.5" r="8.4"/>
  <path class="st0" d="M68.6,19.2c0-4.5-2.8-8.3-6.7-9.8-.6,5-1,11.8-1.4,20,4.6-1.1,8.1-5.3,8.1-10.2Z"/>
  <path class="st3" d="M47.5,83.1h-.8c.5-1.3.7-2.8.7-4.3,0-7-5.7-12.7-12.7-12.7s-12.7,5.7-12.7,12.7,4.2,11.1,9.8,12.3c-2.2,3.1-3.4,6.8-3.4,10.9,0,10.5,8.5,19,19,19s10.6-2.4,14-6.2c-.6-6.8-1.1-16.1-1.4-26.9-3.4-3-7.8-4.8-12.6-4.8h0Z"/>
  <path class="st3" d="M47.1,41.3c4.7,0,8.4-3.8,8.4-8.4s-.4-2.6-.9-3.8c1.1.4,2.2.6,3.4.6s1.7-.1,2.5-.3c.4-8.2.8-15.1,1.4-20-1.2-.5-2.5-.8-3.9-.8-5.8,0-10.6,4.7-10.6,10.6s.6,3.9,1.6,5.5c-.6-.1-1.3-.2-1.9-.2-4.7,0-8.4,3.8-8.4,8.4s3.8,8.4,8.4,8.4Z"/>
  <circle class="st3" cx="22.1" cy="51.2" r="8.4"/>
  <circle class="st3" cx="13.6" cy="78.9" r="4.2"/>
  <circle class="st3" cx="49.2" cy="59.6" r="6.3"/>
  <circle class="st3" cx="28.1" cy="29.7" r="4.2"/>
</svg>