<?xml version="1.0" encoding="UTF-8"?>
<svg id="Layer_1" xmlns="http://www.w3.org/2000/svg" version="1.1" viewBox="0 0 128 128">
  <!-- Generator: Adobe Illustrator 29.7.1, SVG Export Plug-In . SVG Version: 2.1.1 Build 8)  -->
  <defs>
    <style>
      .st0 {
        fill: #f4dc9f;
      }

      .st1 {
        fill: #3e31a4;
      }

      .st2 {
        fill: #ffe8a6;
      }

      .st3 {
        fill: #3e43b2;
      }
    </style>
  </defs>
  <path class="st2" d="M68.2,64c0-35.1-1.9-63.5-4.2-63.5C29,.5.5,28.9.5,64s28.4,63.5,63.5,63.5,4.2-28.4,4.2-63.5Z"/>
  <path class="st1" d="M64,.5c2.3,0,4.2,28.4,4.2,63.5s-1.9,63.5-4.2,63.5c35.1,0,63.5-28.4,63.5-63.5S99.1.5,64,.5Z"/>
  <path class="st0" d="M47.4,83.1h-.8c.5-1.3.8-2.8.8-4.3,0-7-5.7-12.7-12.7-12.7s-12.7,5.7-12.7,12.7,4.2,11.1,9.9,12.4c-2.2,3.1-3.4,6.8-3.4,10.9,0,10.5,8.5,19,19,19s19-8.5,19-19-8.5-19-19-19h0Z"/>
  <path class="st0" d="M47.1,41.2c4.7,0,8.5-3.8,8.5-8.5s-.4-2.6-.9-3.8c1.1.4,2.2.6,3.4.6,4,0,7.5-2.3,9.3-5.6-.2-4.2-.5-8-.8-11.2-1.9-2.6-5-4.4-8.5-4.4-5.8,0-10.6,4.7-10.6,10.6s.6,3.9,1.6,5.5c-.6-.1-1.3-.2-1.9-.2-4.7,0-8.5,3.8-8.5,8.5s3.8,8.5,8.5,8.5h0Z"/>
  <path class="st0" d="M67.9,40.1c0-3.5-.2-6.8-.3-9.9-.9,1.4-1.5,3-1.5,4.8s.7,3.7,1.8,5.2h0Z"/>
  <circle class="st0" cx="22" cy="51.1" r="8.5"/>
  <circle class="st0" cx="13.5" cy="78.9" r="4.2"/>
  <circle class="st0" cx="49.2" cy="59.6" r="6.3"/>
  <circle class="st0" cx="28" cy="29.6" r="4.2"/>
  <circle class="st3" cx="102.1" cy="70.9" r="14.8"/>
  <path class="st3" d="M74.6,26.4c-2.9,0-5.5,1.5-7,3.7,0,3.1.2,6.5.3,9.9,1.5,2,3.9,3.3,6.7,3.3,4.7,0,8.5-3.8,8.5-8.5s-3.8-8.5-8.5-8.5h0Z"/>
  <circle class="st3" cx="78.8" cy="15.8" r="4.2"/>
  <circle class="st3" cx="106.3" cy="102.2" r="4.2"/>
  <circle class="st3" cx="93.6" cy="107.6" r="8.5"/>
  <path class="st3" d="M66.5,12.8c.3,3.2.6,7,.8,11.2.8-1.5,1.3-3.2,1.3-4.9s-.8-4.5-2.1-6.2h0Z"/>
</svg>