<?xml version="1.0" encoding="UTF-8"?>
<svg id="Layer_1" xmlns="http://www.w3.org/2000/svg" version="1.1" viewBox="0 0 128 128">
  <!-- Generator: Adobe Illustrator 29.7.1, SVG Export Plug-In . SVG Version: 2.1.1 Build 8)  -->
  <defs>
    <style>
      .st0 {
        fill: #f4dc9f;
      }

      .st1 {
        fill: #3e31a4;
      }

      .st2 {
        fill: #ffe8a6;
      }

      .st3 {
        fill: #3e43b2;
      }
    </style>
  </defs>
  <path class="st2" d="M99.8,63.9C99.8,29,83.8.7,64,.7,29.1.7.7,29,.7,63.9s28.3,63.3,63.3,63.3,35.8-28.3,35.8-63.3Z"/>
  <path class="st1" d="M64,.7c19.8,0,35.8,28.3,35.8,63.3s-16,63.3-35.8,63.3c34.9,0,63.3-28.3,63.3-63.3S98.9.7,64,.7Z"/>
  <path class="st0" d="M99.6,56.2c-7,1.1-12.4,7.2-12.4,14.6s4.5,12.4,10.6,14.2c1.3-6.6,2-13.6,2-21s0-5.2-.3-7.7h.1Z"/>
  <path class="st0" d="M47.5,83h-.8c.5-1.3.7-2.8.7-4.3,0-7-5.7-12.7-12.7-12.7s-12.7,5.7-12.7,12.7,4.2,11,9.8,12.3c-2.2,3.1-3.4,6.8-3.4,10.9,0,10.5,8.5,19,19,19s19-8.5,19-19-8.5-19-19-19h0Z"/>
  <path class="st0" d="M47.1,41.2c4.7,0,8.4-3.8,8.4-8.4s-.4-2.6-.9-3.8c1.1.4,2.2.6,3.4.6,5.8,0,10.5-4.7,10.5-10.5s-4.7-10.5-10.5-10.5-10.5,4.7-10.5,10.5.6,3.9,1.6,5.5c-.6-.1-1.3-.2-1.9-.2-4.7,0-8.4,3.8-8.4,8.4s3.8,8.4,8.4,8.4h0Z"/>
  <circle class="st0" cx="74.5" cy="34.9" r="8.4"/>
  <circle class="st0" cx="22.1" cy="51.1" r="8.4"/>
  <circle class="st0" cx="78.8" cy="15.9" r="4.2"/>
  <circle class="st0" cx="13.6" cy="78.8" r="4.2"/>
  <circle class="st0" cx="49.2" cy="59.5" r="6.3"/>
  <circle class="st0" cx="28.2" cy="29.6" r="4.2"/>
  <path class="st0" d="M85.1,107.4c0,2,.7,3.7,1.8,5.2,2.7-3.9,5-8.5,6.9-13.6h-.3c-4.7,0-8.4,3.8-8.4,8.4Z"/>
  <path class="st3" d="M116.7,70.8c0-8.2-6.6-14.8-14.8-14.8s-1.6,0-2.4.2c.2,2.5.3,5.1.3,7.7,0,7.4-.7,14.4-2,21,1.3.4,2.7.6,4.1.6,8.1,0,14.8-6.6,14.8-14.8h0Z"/>
  <circle class="st3" cx="106.2" cy="102" r="4.2"/>
  <path class="st3" d="M93.5,115.8c4.7,0,8.4-3.8,8.4-8.4s-3.6-8.2-8.1-8.4c-1.9,5.1-4.3,9.7-6.9,13.6,1.5,2,3.9,3.3,6.6,3.3h0Z"/>
</svg>