<?xml version="1.0" encoding="UTF-8"?>
<svg id="Layer_1" xmlns="http://www.w3.org/2000/svg" version="1.1" viewBox="0 0 128 128">
  <!-- Generator: Adobe Illustrator 29.7.1, SVG Export Plug-In . SVG Version: 2.1.1 Build 8)  -->
  <defs>
    <style>
      .st0 {
        fill: #f4dc9f;
      }

      .st1 {
        fill: #3e31a4;
      }

      .st2 {
        fill: #ffe8a6;
      }

      .st3 {
        fill: #3e43b2;
      }
    </style>
  </defs>
  <path class="st1" d="M64,.5C44.2.5,28,28.9,28,64s16.1,63.6,36,63.6c35.1,0,63.6-28.5,63.6-63.6S99.1.5,64,.5Z"/>
  <path class="st2" d="M28,64C28,28.9,44.2.5,64,.5,29,.5.5,28.9.5,64s28.5,63.6,63.6,63.6c-19.9,0-36-28.5-36-63.6h0Z"/>
  <circle class="st3" cx="102.1" cy="70.9" r="14.8"/>
  <path class="st3" d="M47.4,83.2h-.8c.5-1.3.8-2.8.8-4.3,0-7-5.7-12.7-12.7-12.7s-4.6.7-6.5,1.8c.3,8.3,1.5,16.1,3.4,23.2h.3s-.1.2-.2.3c3.5,12.9,9.5,23.4,16.8,29.6,10.1-.5,18.1-8.8,18.1-19s-8.5-19.1-19.1-19.1v.2h0Z"/>
  <path class="st3" d="M47,41.2c4.7,0,8.5-3.8,8.5-8.5s-.4-2.6-.9-3.8c1.1.4,2.2.6,3.4.6,5.9,0,10.6-4.7,10.6-10.6s-4.7-10.6-10.6-10.6-10.6,4.7-10.6,10.6.6,3.9,1.6,5.5c-.6-.1-1.3-.2-1.9-.2-4.7,0-8.5,3.8-8.5,8.5s3.8,8.5,8.5,8.5h0Z"/>
  <circle class="st3" cx="74.5" cy="34.9" r="8.5"/>
  <path class="st3" d="M29.2,47.1c-.5,3.1-.8,6.3-1.1,9.6,1.3-1.5,2.1-3.4,2.1-5.6s-.4-2.8-1.1-4h.1Z"/>
  <circle class="st3" cx="78.9" cy="15.8" r="4.2"/>
  <circle class="st3" cx="106.4" cy="102.2" r="4.2"/>
  <circle class="st3" cx="49.2" cy="59.6" r="6.4"/>
  <circle class="st3" cx="93.6" cy="107.7" r="8.5"/>
  <path class="st0" d="M28.1,68c-3.7,2.2-6.2,6.3-6.2,10.9s4.1,10.9,9.6,12.3c-1.9-7.1-3.1-14.9-3.4-23.2Z"/>
  <path class="st0" d="M31.6,91.6c-2,3-3.2,6.7-3.2,10.6,0,10.5,8.5,19.1,19.1,19.1s.6,0,1,0c-7.3-6.2-13.3-16.7-16.8-29.6h-.1Z"/>
  <path class="st0" d="M21.9,59.6c2.5,0,4.8-1.1,6.3-2.9.2-3.3.6-6.5,1.1-9.6-1.4-2.6-4.2-4.4-7.4-4.4-4.7,0-8.5,3.8-8.5,8.5s3.8,8.5,8.5,8.5h0Z"/>
  <circle class="st0" cx="13.5" cy="78.8" r="4.2"/>
  <circle class="st0" cx="28" cy="29.6" r="4.2"/>
</svg>