<?xml version="1.0" encoding="UTF-8"?>
<svg id="Layer_1" xmlns="http://www.w3.org/2000/svg" version="1.1" viewBox="0 0 128 128">
  <!-- Generator: Adobe Illustrator 29.7.1, SVG Export Plug-In . SVG Version: 2.1.1 Build 8)  -->
  <defs>
    <style>
      .st0 {
        fill: #f4dc9f;
      }

      .st1 {
        fill: #3e4347;
      }

      .st2 {
        fill: #464d51;
      }

      .st3 {
        fill: #ffe8a6;
      }
    </style>
  </defs>
  <path class="st3" d="M63.3,3.7c-18.7,0-33.9,26.8-33.9,59.8s15.2,59.8,33.9,59.8c33,0,59.8-26.8,59.8-59.8S96.4,3.7,63.3,3.7Z"/>
  <path class="st1" d="M29.5,63.5C29.5,30.5,44.6,3.7,63.3,3.7,30.3,3.7,3.6,30.5,3.6,63.5s26.8,59.8,59.8,59.8c-18.7,0-33.9-26.8-33.9-59.8Z"/>
  <circle class="st0" cx="99.2" cy="70" r="13.9"/>
  <path class="st0" d="M47.7,81.5c-.3,0-.5,0-.8,0,.5-1.3.7-2.6.7-4,0-6.6-5.4-12-12-12s-4.3.6-6.1,1.7c.3,7.8,1.4,15.1,3.2,21.8,0,0,.2,0,.3,0,0,0-.1.2-.2.3,3.3,12.1,8.9,22,15.8,27.9,9.5-.5,17-8.3,17-17.9,0-9.9-8-17.9-17.9-17.9Z"/>
  <path class="st0" d="M47.4,42.1c4.4,0,8-3.6,8-8s-.3-2.5-.9-3.6c1,.3,2.1.6,3.2.6,5.5,0,10-4.5,10-10s-4.5-10-10-10-10,4.5-10,10,.6,3.7,1.5,5.2c-.6-.1-1.2-.2-1.8-.2-4.4,0-8,3.6-8,8,0,4.4,3.6,8,8,8Z"/>
  <circle class="st0" cx="73.3" cy="36.1" r="8"/>
  <path class="st0" d="M30.7,47.6c-.5,2.9-.8,5.9-1,9,1.2-1.4,2-3.2,2-5.2s-.4-2.7-1-3.8Z"/>
  <circle class="st0" cx="77.3" cy="18.2" r="4"/>
  <circle class="st0" cx="103.2" cy="99.5" r="4"/>
  <circle class="st0" cx="49.4" cy="59.4" r="6"/>
  <circle class="st0" cx="91.2" cy="104.6" r="8"/>
  <path class="st2" d="M29.6,67.3c-3.5,2.1-5.8,5.9-5.8,10.2s3.8,10.3,9,11.6c-1.8-6.7-2.9-14-3.2-21.8Z"/>
  <path class="st2" d="M32.8,89.5c-1.9,2.9-3,6.3-3,10,0,9.9,8,17.9,17.9,17.9s.6,0,.9,0c-6.9-5.9-12.5-15.7-15.8-27.9Z"/>
  <path class="st2" d="M23.7,59.4c2.4,0,4.5-1.1,6-2.7.2-3.1.5-6.1,1-9-1.4-2.5-3.9-4.2-7-4.2-4.4,0-8,3.6-8,8,0,4.4,3.6,8,8,8Z"/>
  <circle class="st2" cx="15.8" cy="77.5" r="4"/>
  <circle class="st2" cx="29.5" cy="31.1" r="4"/>
</svg>