<?xml version="1.0" encoding="UTF-8"?>
<svg id="Layer_1" xmlns="http://www.w3.org/2000/svg" version="1.1" viewBox="0 0 128 128">
  <!-- Generator: Adobe Illustrator 29.7.1, SVG Export Plug-In . SVG Version: 2.1.1 Build 8)  -->
  <defs>
    <style>
      .st0 {
        fill: #f4dc9f;
      }

      .st1 {
        fill: #3e31a4;
      }

      .st2 {
        fill: #ffe8a6;
      }

      .st3 {
        fill: #3e43b2;
      }
    </style>
  </defs>
  <path class="st1" d="M99.9,64C99.9,29,83.8.6,64,.6,29,.6.6,29,.6,64s28.4,63.4,63.4,63.4,35.9-28.4,35.9-63.4Z"/>
  <path class="st2" d="M64,.6c19.9,0,35.9,28.4,35.9,63.4s-16.1,63.4-35.9,63.4c35,0,63.4-28.4,63.4-63.4S99,.6,64,.6Z"/>
  <path class="st3" d="M99.7,56.3c-7,1.1-12.4,7.2-12.4,14.6s4.5,12.4,10.6,14.2c1.3-6.6,2-13.7,2-21.1s0-5.2-.3-7.7h.1Z"/>
  <path class="st3" d="M47.4,83.1h-.8c.5-1.3.8-2.8.8-4.3,0-7-5.7-12.7-12.7-12.7s-12.7,5.7-12.7,12.7,4.2,11.1,9.9,12.4c-2.2,3.1-3.4,6.8-3.4,10.9,0,10.5,8.5,19,19,19s19-8.5,19-19-8.5-19-19-19h-.1Z"/>
  <path class="st3" d="M47.1,41.3c4.7,0,8.5-3.8,8.5-8.5s-.4-2.6-.9-3.8c1.1.4,2.2.6,3.4.6,5.8,0,10.6-4.7,10.6-10.6s-4.7-10.6-10.6-10.6-10.6,4.7-10.6,10.6.6,3.9,1.6,5.5c-.6-.1-1.3-.2-1.9-.2-4.7,0-8.5,3.8-8.5,8.5s3.8,8.5,8.5,8.5h0Z"/>
  <circle class="st3" cx="74.6" cy="34.9" r="8.5"/>
  <circle class="st3" cx="22" cy="51.1" r="8.5"/>
  <circle class="st3" cx="78.8" cy="15.9" r="4.2"/>
  <circle class="st3" cx="13.5" cy="78.9" r="4.2"/>
  <circle class="st3" cx="49.2" cy="59.6" r="6.3"/>
  <circle class="st3" cx="28.1" cy="29.6" r="4.2"/>
  <path class="st3" d="M85.1,107.6c0,2,.7,3.7,1.8,5.2,2.7-3.9,5-8.5,6.9-13.6h-.3c-4.7,0-8.5,3.8-8.5,8.5h0Z"/>
  <path class="st0" d="M116.9,70.9c0-8.2-6.6-14.8-14.8-14.8s-1.6,0-2.4.2c.2,2.5.3,5.1.3,7.7,0,7.4-.7,14.5-2,21.1,1.3.4,2.7.6,4.2.6,8.2,0,14.8-6.6,14.8-14.8h0Z"/>
  <circle class="st0" cx="106.3" cy="102.2" r="4.2"/>
  <path class="st0" d="M93.6,116.1c4.7,0,8.5-3.8,8.5-8.5s-3.6-8.3-8.1-8.4c-1.9,5.1-4.3,9.7-6.9,13.6,1.5,2,3.9,3.3,6.6,3.3h0Z"/>
</svg>