<?xml version="1.0" encoding="UTF-8"?>
<svg id="Layer_1" xmlns="http://www.w3.org/2000/svg" version="1.1" viewBox="0 0 128 128">
  <!-- Generator: Adobe Illustrator 29.7.1, SVG Export Plug-In . SVG Version: 2.1.1 Build 8)  -->
  <defs>
    <style>
      .st0 {
        fill: #606060;
        isolation: isolate;
        opacity: .1;
      }

      .st1 {
        fill: #3e31a4;
      }

      .st2 {
        fill: #ffe8a6;
      }

      .st3 {
        fill: #3e43b2;
      }
    </style>
  </defs>
  <path class="st2" d="M63.9.3C44,.3,27.8,28.8,27.8,64s16.2,63.7,36.1,63.7c35.2,0,63.7-28.6,63.7-63.7S99.2.3,63.9.3Z"/>
  <path class="st1" d="M27.9,64C27.9,28.8,44,.3,63.9.3,28.8.3.3,28.8.3,64s28.6,63.7,63.7,63.7c-19.9,0-36.1-28.6-36.1-63.7Z"/>
  <circle class="st0" cx="102.2" cy="70.9" r="14.8"/>
  <path class="st0" d="M47.3,83.2h-.9c.5-1.4.7-2.8.7-4.3,0-7-5.8-12.8-12.8-12.8s-4.6.6-6.5,1.8c.3,8.3,1.5,16.1,3.4,23.2h.3s0,.2-.2.3c3.5,12.9,9.5,23.4,16.8,29.7,10.1-.5,18.1-8.8,18.1-19.1s-8.5-19.1-19.1-19.1h0Z"/>
  <path class="st0" d="M47,41.2c4.7,0,8.5-3.8,8.5-8.5s-.3-2.7-1-3.8c1.1.3,2.2.6,3.4.6,5.9,0,10.7-4.8,10.7-10.7s-4.8-10.7-10.7-10.7-10.7,4.8-10.7,10.7.6,3.9,1.6,5.5c-.6-.1-1.3-.2-1.9-.2-4.7,0-8.5,3.8-8.5,8.5s3.8,8.5,8.5,8.5Z"/>
  <circle class="st0" cx="74.6" cy="34.8" r="8.5"/>
  <path class="st0" d="M29.2,47.1c-.5,3.1-.9,6.3-1.1,9.6,1.3-1.5,2.1-3.4,2.1-5.5s-.4-2.9-1.1-4Z"/>
  <circle class="st0" cx="78.9" cy="15.7" r="4.3"/>
  <circle class="st0" cx="106.5" cy="102.4" r="4.3"/>
  <circle class="st0" cx="49.1" cy="59.6" r="6.4"/>
  <circle class="st0" cx="93.7" cy="107.8" r="8.5"/>
  <path class="st3" d="M28,68c-3.7,2.2-6.2,6.3-6.2,10.9s4,11,9.6,12.4c-1.9-7.1-3.1-14.9-3.4-23.2Z"/>
  <path class="st3" d="M31.4,91.7c-2,3.1-3.2,6.7-3.2,10.7,0,10.5,8.5,19.1,19.1,19.1s.6,0,1,0c-7.4-6.3-13.3-16.7-16.8-29.7Z"/>
  <path class="st3" d="M21.7,59.6c2.6,0,4.8-1.2,6.4-2.9.2-3.3.5-6.5,1.1-9.6-1.5-2.7-4.2-4.5-7.5-4.5-4.7,0-8.5,3.8-8.5,8.5s3.8,8.5,8.5,8.5h0Z"/>
  <circle class="st3" cx="13.3" cy="78.9" r="4.3"/>
  <circle class="st3" cx="27.9" cy="29.5" r="4.3"/>
</svg>